<svg xmlns="http://www.w3.org/2000/svg" xmlns:xlink="http://www.w3.org/1999/xlink" width="48" zoomAndPan="magnify" viewBox="0 0 36 36.000001" height="48" preserveAspectRatio="xMidYMid meet" version="1.0"><defs><clipPath id="e6e4698b13"><path d="M 0.488281 0 L 35.511719 0 L 35.511719 35.027344 L 0.488281 35.027344 Z M 0.488281 0 " clip-rule="nonzero"/></clipPath><clipPath id="60ae053fa7"><path d="M 7 4.816406 L 30.917969 4.816406 L 30.917969 35.027344 L 7 35.027344 Z M 7 4.816406 " clip-rule="nonzero"/></clipPath><clipPath id="bdba5bb128"><path d="M 5.378906 28 L 30.917969 28 L 30.917969 35.027344 L 5.378906 35.027344 Z M 5.378906 28 " clip-rule="nonzero"/></clipPath><clipPath id="42a9a78eda"><path d="M 5.378906 29 L 30.917969 29 L 30.917969 35.027344 L 5.378906 35.027344 Z M 5.378906 29 " clip-rule="nonzero"/></clipPath><clipPath id="d73940c4d0"><path d="M 5.378906 29 L 15 29 L 15 35.027344 L 5.378906 35.027344 Z M 5.378906 29 " clip-rule="nonzero"/></clipPath></defs><g clip-path="url(#e6e4698b13)"><path fill="#99c9ff" d="M 18 0 C 8.328125 0 0.488281 7.839844 0.488281 17.511719 C 0.488281 27.1875 8.328125 35.027344 18 35.027344 C 27.671875 35.027344 35.511719 27.1875 35.511719 17.511719 C 35.511719 7.839844 27.671875 0 18 0 " fill-opacity="1" fill-rule="nonzero"/></g><g clip-path="url(#60ae053fa7)"><path fill="#291312" d="M 29.042969 26.722656 C 28.507812 25.886719 28.019531 24.976562 27.964844 23.832031 C 27.894531 22.386719 28.277344 21.183594 28.585938 19.851562 C 28.960938 18.21875 27.832031 17.035156 27.605469 14.804688 C 27.746094 7.203125 23.902344 4.84375 18.820312 4.84375 C 14.3125 4.84375 10.726562 6.796875 9.875 12.109375 C 9.851562 12.199219 9.835938 12.285156 9.832031 12.382812 C 9.832031 12.410156 9.828125 12.429688 9.824219 12.457031 C 9.765625 12.9375 9.726562 13.449219 9.707031 13.980469 C 9.320312 17.039062 8.304688 18.117188 8.707031 19.851562 C 9.015625 21.183594 9.394531 22.386719 9.324219 23.832031 C 9.269531 24.976562 8.785156 25.886719 8.25 26.722656 C 7.339844 28.148438 6.710938 29.734375 7.789062 31.253906 C 8.476562 32.21875 9.394531 32.875 9.324219 34.445312 C 9.289062 35.214844 8.988281 34.859375 8.714844 34.5 C 8.441406 34.144531 8.1875 33.789062 8.246094 34.554688 C 8.371094 36.195312 9.550781 37.042969 10.613281 37.109375 C 11.03125 37.136719 11.558594 36.839844 12.082031 36.542969 C 12.585938 36.257812 13.089844 35.972656 13.492188 35.972656 C 14.394531 35.972656 15.089844 37.582031 15.953125 37.1875 C 17.058594 36.679688 17.574219 36.425781 18.644531 36.128906 C 19.714844 36.425781 20.230469 36.679688 21.335938 37.1875 C 22.199219 37.582031 22.894531 35.972656 23.796875 35.972656 C 24.199219 35.972656 24.703125 36.257812 25.207031 36.542969 C 25.730469 36.839844 26.257812 37.136719 26.675781 37.109375 C 27.738281 37.042969 28.917969 36.195312 29.042969 34.554688 C 29.101562 33.789062 28.851562 34.144531 28.574219 34.5 C 28.300781 34.859375 28 35.214844 27.964844 34.445312 C 27.894531 32.875 28.8125 32.21875 29.5 31.253906 C 30.582031 29.734375 29.949219 28.148438 29.042969 26.722656 " fill-opacity="1" fill-rule="nonzero"/></g><path fill="#f89a6a" d="M 18.582031 5.855469 L 18.5625 5.855469 C 13.09375 5.921875 10.667969 8.964844 10.703125 17.265625 C 10.710938 19.082031 10.828125 20.492188 11.675781 21.726562 C 13.589844 24.511719 14.53125 25.507812 17.394531 27.144531 C 17.71875 27.332031 18.386719 27.425781 18.664062 27.425781 C 18.964844 27.425781 19.65625 27.316406 19.933594 27.132812 C 22.707031 25.320312 23.589844 24.527344 25.601562 21.667969 C 26.464844 20.441406 26.546875 19.011719 26.539062 17.199219 C 26.503906 8.898438 24.050781 5.875 18.582031 5.855469 " fill-opacity="1" fill-rule="nonzero"/><path fill="#f89a6a" d="M 11.242188 15.359375 C 11.476562 14.84375 10.609375 14.007812 10.148438 14.738281 C 9.511719 15.761719 9.832031 18.074219 11.253906 18.414062 L 11.242188 15.359375 " fill-opacity="1" fill-rule="nonzero"/><path fill="#f89a6a" d="M 25.984375 15.289062 C 25.742188 14.78125 26.605469 13.933594 27.070312 14.660156 C 27.71875 15.679688 27.417969 17.992188 26 18.347656 L 25.984375 15.289062 " fill-opacity="1" fill-rule="nonzero"/><path fill="#f89a6a" d="M 21.140625 25.316406 C 19.480469 25.023438 17.828125 25.03125 16.171875 25.339844 C 16.625 26.449219 16.628906 27.566406 16.1875 28.683594 C 17.84375 28.976562 19.5 28.96875 21.15625 28.660156 C 20.703125 27.546875 20.699219 26.433594 21.140625 25.316406 " fill-opacity="1" fill-rule="nonzero"/><g clip-path="url(#bdba5bb128)"><path fill="#f89a6a" d="M 8.613281 46.394531 C 8.699219 45.828125 8.769531 45.265625 8.816406 44.71875 C 9.058594 42.023438 9.765625 36.519531 9.765625 36.519531 C 9.765625 36.582031 9.765625 36.648438 9.761719 36.710938 L 9.761719 36.726562 C 9.734375 37.257812 9.628906 39.796875 9.632812 40.703125 C 9.640625 42.476562 10.351562 44.0625 11.464844 45.140625 C 11.574219 45.550781 11.671875 45.96875 11.757812 46.394531 L 25.789062 46.394531 C 25.875 45.949219 25.976562 45.507812 26.082031 45.074219 C 27.1875 43.988281 27.886719 42.398438 27.878906 40.625 C 27.875 39.714844 27.746094 37.179688 27.714844 36.648438 L 27.714844 36.632812 C 27.710938 36.570312 27.710938 36.503906 27.710938 36.441406 C 27.710938 36.441406 28.460938 41.9375 28.726562 44.632812 C 28.785156 45.210938 28.867188 45.800781 28.960938 46.394531 L 33.503906 46.394531 C 33.304688 44.636719 33.117188 42.964844 32.878906 41.417969 C 32.09375 36.417969 31.054688 32.757812 30.117188 31.832031 C 28.515625 30.242188 26.300781 30.890625 20.59375 28.28125 L 18.765625 28.289062 L 18.640625 28.289062 L 16.8125 28.296875 C 11.125 30.957031 8.910156 30.328125 7.316406 31.929688 C 6.390625 32.867188 5.382812 36.535156 4.640625 41.542969 C 4.417969 43.050781 4.246094 44.683594 4.070312 46.394531 L 8.613281 46.394531 " fill-opacity="1" fill-rule="nonzero"/></g><path fill="#291312" d="M 18.464844 10.238281 C 18.464844 10.238281 26.253906 12.8125 26.5 16.714844 C 26.535156 16.285156 26.542969 15.828125 26.539062 15.339844 C 26.511719 8.160156 24.070312 5.546875 18.632812 5.535156 L 18.609375 5.535156 C 13.171875 5.59375 10.753906 8.226562 10.785156 15.410156 C 10.789062 15.886719 10.800781 16.332031 10.839844 16.75 C 11.003906 13.835938 18.335938 10.238281 18.335938 10.238281 L 18.464844 10.238281 " fill-opacity="1" fill-rule="nonzero"/><path fill="#3a1d1d" d="M 26.539062 15.179688 C 26.539062 15.617188 26.53125 16.03125 26.5 16.417969 C 26.253906 12.515625 18.460938 9.941406 18.460938 9.941406 L 18.332031 9.941406 C 18.332031 9.941406 11 13.539062 10.839844 16.453125 C 10.800781 16.074219 10.789062 15.667969 10.785156 15.238281 C 10.785156 15.296875 10.785156 15.351562 10.785156 15.410156 C 10.789062 15.886719 10.800781 16.332031 10.839844 16.75 C 11.003906 13.835938 18.335938 10.238281 18.335938 10.238281 L 18.464844 10.238281 C 18.464844 10.238281 26.253906 12.8125 26.5 16.714844 C 26.535156 16.285156 26.542969 15.828125 26.539062 15.339844 C 26.539062 15.285156 26.539062 15.234375 26.539062 15.179688 " fill-opacity="1" fill-rule="nonzero"/><path fill="#3a1d1d" d="M 18.199219 10.011719 L 18.054688 10.0625 C 18.054688 10.0625 12.140625 12.941406 10.789062 15.636719 C 10.796875 16.027344 10.804688 16.398438 10.839844 16.75 C 11.003906 13.835938 18.335938 10.238281 18.335938 10.238281 L 18.464844 10.238281 C 18.464844 10.238281 20.058594 10.765625 21.828125 11.703125 C 19.933594 10.65625 18.199219 10.011719 18.199219 10.011719 " fill-opacity="1" fill-rule="nonzero"/><path fill="#3a1d1d" d="M 18.890625 6.667969 L 18.910156 6.667969 C 22.808594 6.675781 25.164062 8.023438 26.199219 11.425781 C 25.359375 7.183594 22.933594 5.542969 18.632812 5.535156 L 18.609375 5.535156 C 13.171875 5.59375 10.753906 8.226562 10.785156 15.410156 C 10.789062 15.886719 10.800781 16.332031 10.839844 16.75 C 10.890625 15.839844 10.992188 15.050781 11.144531 14.363281 C 11.597656 8.824219 14.042969 6.722656 18.890625 6.667969 " fill-opacity="1" fill-rule="nonzero"/><path fill="#3a1d1d" d="M 18.902344 9.636719 L 18.90625 9.886719 C 18.90625 9.757812 18.902344 9.636719 18.902344 9.636719 " fill-opacity="1" fill-rule="nonzero"/><path fill="#3a1d1d" d="M 18.160156 10.144531 L 18.140625 5.742188 L 18.492188 5.738281 L 18.511719 10.144531 L 18.160156 10.144531 " fill-opacity="1" fill-rule="nonzero"/><g clip-path="url(#42a9a78eda)"><path fill="#e4e5e3" d="M 8.8125 46.394531 C 9.238281 43.714844 9.453125 40.6875 9.558594 38.664062 C 9.53125 39.402344 9.511719 40.144531 9.511719 40.558594 C 9.519531 42.339844 10.25 43.933594 11.390625 45.015625 C 11.464844 45.292969 11.5 45.785156 11.511719 46.394531 L 26.015625 46.394531 C 26.027344 45.785156 26.0625 45.292969 26.132812 45.015625 C 27.273438 43.933594 28.003906 42.339844 28.011719 40.558594 C 28.015625 40.144531 27.992188 39.402344 27.964844 38.664062 C 28.070312 40.6875 28.285156 43.714844 28.714844 46.394531 L 33.722656 46.394531 C 33.457031 38.503906 31.21875 32.5625 30.386719 31.738281 C 28.988281 30.355469 27.109375 30.621094 22.929688 29.039062 C 21.988281 30.28125 18.867188 33.9375 18.867188 33.9375 C 18.84375 33.9375 18.816406 33.9375 18.792969 33.933594 L 18.734375 33.933594 C 18.707031 33.9375 18.683594 33.9375 18.65625 33.9375 C 18.65625 33.9375 15.539062 30.28125 14.597656 29.039062 C 10.414062 30.621094 8.539062 30.355469 7.140625 31.738281 C 6.304688 32.5625 4.070312 38.503906 3.800781 46.394531 L 8.8125 46.394531 " fill-opacity="1" fill-rule="nonzero"/></g><g clip-path="url(#d73940c4d0)"><path fill="#d0d1cf" d="M 4.617188 46.394531 C 4.910156 38.582031 7.125 32.714844 7.953125 31.894531 C 9.289062 30.570312 11.066406 30.75 14.871094 29.390625 C 14.765625 29.257812 14.671875 29.140625 14.597656 29.039062 C 10.414062 30.621094 8.539062 30.355469 7.140625 31.738281 C 6.304688 32.5625 4.070312 38.503906 3.800781 46.394531 L 4.617188 46.394531 " fill-opacity="1" fill-rule="nonzero"/></g><path fill="#d0d1cf" d="M 19.46875 34.09375 C 19.496094 34.09375 19.519531 34.09375 19.546875 34.089844 L 19.605469 34.089844 C 19.628906 34.09375 19.65625 34.09375 19.679688 34.09375 C 19.679688 34.09375 22.625 30.636719 23.65625 29.300781 C 23.421875 29.222656 23.179688 29.132812 22.929688 29.039062 C 22.144531 30.074219 19.84375 32.792969 19.101562 33.664062 C 19.328125 33.929688 19.46875 34.09375 19.46875 34.09375 " fill-opacity="1" fill-rule="nonzero"/><path fill="#412315" d="M 15.449219 17.535156 C 15.449219 16.882812 15.082031 16.351562 14.632812 16.351562 C 14.183594 16.351562 13.820312 16.882812 13.820312 17.535156 C 13.820312 18.191406 14.183594 18.722656 14.632812 18.722656 C 15.082031 18.722656 15.449219 18.191406 15.449219 17.535156 " fill-opacity="1" fill-rule="nonzero"/><path fill="#412315" d="M 23.507812 17.535156 C 23.507812 16.882812 23.140625 16.351562 22.691406 16.351562 C 22.242188 16.351562 21.878906 16.882812 21.878906 17.535156 C 21.878906 18.191406 22.242188 18.722656 22.691406 18.722656 C 23.140625 18.722656 23.507812 18.191406 23.507812 17.535156 " fill-opacity="1" fill-rule="nonzero"/><path fill="#412315" d="M 13.527344 15.453125 C 13.496094 15.453125 13.464844 15.4375 13.441406 15.414062 C 13.398438 15.367188 13.402344 15.292969 13.449219 15.25 C 13.460938 15.242188 14.382812 14.410156 15.414062 15.003906 C 15.472656 15.035156 15.488281 15.105469 15.460938 15.160156 C 15.425781 15.21875 15.355469 15.238281 15.300781 15.203125 C 14.410156 14.691406 13.613281 15.414062 13.605469 15.421875 C 13.582031 15.441406 13.554688 15.453125 13.527344 15.453125 " fill-opacity="1" fill-rule="nonzero"/><path fill="#412315" d="M 23.800781 15.453125 C 23.769531 15.453125 23.742188 15.441406 23.722656 15.421875 C 23.691406 15.394531 22.910156 14.695312 22.023438 15.203125 C 21.96875 15.238281 21.898438 15.21875 21.867188 15.160156 C 21.835938 15.105469 21.855469 15.035156 21.910156 15.003906 C 22.945312 14.410156 23.867188 15.242188 23.878906 15.25 C 23.921875 15.292969 23.925781 15.367188 23.886719 15.414062 C 23.863281 15.4375 23.832031 15.453125 23.800781 15.453125 " fill-opacity="1" fill-rule="nonzero"/><path fill="#f5764c" d="M 18.589844 23.816406 C 17.625 23.816406 16.753906 23.296875 16.425781 22.523438 C 16.398438 22.464844 16.425781 22.390625 16.484375 22.363281 C 16.5 22.355469 16.519531 22.355469 16.535156 22.355469 C 16.582031 22.355469 16.625 22.382812 16.644531 22.425781 C 16.9375 23.109375 17.71875 23.570312 18.589844 23.570312 C 19.449219 23.570312 20.226562 23.117188 20.527344 22.445312 C 20.546875 22.398438 20.589844 22.375 20.636719 22.375 C 20.652344 22.375 20.667969 22.378906 20.683594 22.382812 C 20.746094 22.414062 20.773438 22.484375 20.746094 22.546875 C 20.40625 23.304688 19.542969 23.816406 18.589844 23.816406 " fill-opacity="1" fill-rule="nonzero"/><path fill="#412315" d="M 14.023438 16.8125 C 13.992188 16.785156 13.964844 16.757812 13.9375 16.730469 C 13.914062 16.703125 13.886719 16.671875 13.867188 16.636719 C 13.824219 16.574219 13.800781 16.496094 13.808594 16.421875 C 13.816406 16.496094 13.859375 16.554688 13.910156 16.601562 C 13.957031 16.652344 14.019531 16.691406 14.078125 16.71875 L 14.023438 16.8125 " fill-opacity="1" fill-rule="nonzero"/><path fill="#412315" d="M 13.992188 16.898438 C 13.945312 16.875 13.90625 16.847656 13.867188 16.820312 C 13.828125 16.792969 13.792969 16.757812 13.761719 16.722656 C 13.699219 16.652344 13.648438 16.5625 13.640625 16.46875 C 13.667969 16.558594 13.726562 16.628906 13.796875 16.683594 C 13.832031 16.710938 13.871094 16.734375 13.910156 16.753906 C 13.949219 16.769531 13.992188 16.785156 14.03125 16.796875 L 13.992188 16.898438 " fill-opacity="1" fill-rule="nonzero"/><path fill="#412315" d="M 13.96875 17.058594 C 13.910156 17.039062 13.855469 17.015625 13.800781 16.984375 C 13.746094 16.957031 13.695312 16.925781 13.648438 16.886719 C 13.554688 16.8125 13.476562 16.710938 13.445312 16.597656 C 13.492188 16.707031 13.582031 16.785156 13.679688 16.84375 C 13.726562 16.871094 13.777344 16.894531 13.832031 16.910156 C 13.886719 16.929688 13.941406 16.945312 13.992188 16.949219 L 13.96875 17.058594 " fill-opacity="1" fill-rule="nonzero"/><path fill="#412315" d="M 23.300781 16.8125 C 23.335938 16.785156 23.363281 16.757812 23.390625 16.730469 C 23.414062 16.703125 23.4375 16.671875 23.460938 16.636719 C 23.5 16.574219 23.527344 16.496094 23.519531 16.421875 C 23.507812 16.496094 23.46875 16.554688 23.417969 16.601562 C 23.371094 16.652344 23.308594 16.691406 23.246094 16.71875 L 23.300781 16.8125 " fill-opacity="1" fill-rule="nonzero"/><path fill="#412315" d="M 23.335938 16.898438 C 23.382812 16.875 23.417969 16.847656 23.460938 16.820312 C 23.496094 16.792969 23.535156 16.757812 23.566406 16.722656 C 23.628906 16.652344 23.675781 16.5625 23.6875 16.46875 C 23.660156 16.558594 23.597656 16.628906 23.527344 16.683594 C 23.492188 16.710938 23.457031 16.734375 23.417969 16.753906 C 23.378906 16.769531 23.335938 16.785156 23.296875 16.796875 L 23.335938 16.898438 " fill-opacity="1" fill-rule="nonzero"/><path fill="#412315" d="M 23.355469 17.058594 C 23.417969 17.039062 23.472656 17.015625 23.527344 16.984375 C 23.582031 16.957031 23.632812 16.925781 23.675781 16.886719 C 23.769531 16.8125 23.847656 16.710938 23.882812 16.597656 C 23.832031 16.707031 23.742188 16.785156 23.648438 16.84375 C 23.597656 16.871094 23.546875 16.894531 23.496094 16.910156 C 23.441406 16.929688 23.386719 16.945312 23.335938 16.949219 L 23.355469 17.058594 " fill-opacity="1" fill-rule="nonzero"/></svg>