<svg xmlns="http://www.w3.org/2000/svg" xmlns:xlink="http://www.w3.org/1999/xlink" width="48" zoomAndPan="magnify" viewBox="0 0 36 36.000001" height="48" preserveAspectRatio="xMidYMid meet" version="1.0"><defs><clipPath id="67a63aadf6"><path d="M 0.488281 0 L 35.511719 0 L 35.511719 35.027344 L 0.488281 35.027344 Z M 0.488281 0 " clip-rule="nonzero"/></clipPath><clipPath id="c4ca1079fd"><path d="M 3.988281 3.601562 L 32.449219 3.601562 L 32.449219 32.636719 L 3.988281 32.636719 Z M 3.988281 3.601562 " clip-rule="nonzero"/></clipPath><clipPath id="cf6d298928"><path d="M 10.75 29.605469 L 25.664062 29.605469 L 25.664062 32.636719 L 10.75 32.636719 Z M 10.75 29.605469 " clip-rule="nonzero"/></clipPath><clipPath id="15ab0352f0"><path d="M 16 2.042969 L 32 2.042969 L 32 32 L 16 32 Z M 16 2.042969 " clip-rule="nonzero"/></clipPath><clipPath id="8a4d30e522"><path d="M 5 2.042969 L 20 2.042969 L 20 32 L 5 32 Z M 5 2.042969 " clip-rule="nonzero"/></clipPath></defs><g clip-path="url(#67a63aadf6)"><path fill="#99c9ff" d="M 18 0 C 8.328125 0 0.488281 7.839844 0.488281 17.511719 C 0.488281 27.1875 8.328125 35.027344 18 35.027344 C 27.671875 35.027344 35.511719 27.1875 35.511719 17.511719 C 35.511719 7.839844 27.671875 0 18 0 " fill-opacity="1" fill-rule="nonzero"/></g><g clip-path="url(#c4ca1079fd)"><path fill="#a5dce1" d="M 18.386719 3.660156 C 10.527344 3.566406 4.082031 9.976562 3.988281 17.980469 C 3.898438 25.980469 10.195312 32.542969 18.050781 32.636719 C 25.910156 32.730469 32.355469 26.320312 32.445312 18.316406 C 32.539062 10.316406 26.242188 3.753906 18.386719 3.660156 " fill-opacity="1" fill-rule="nonzero"/></g><path fill="#13131c" d="M 21.726562 28.109375 C 21.726562 28.082031 21.726562 28.054688 21.71875 28.027344 L 21.71875 28.191406 C 21.722656 28.164062 21.726562 28.136719 21.726562 28.109375 " fill-opacity="1" fill-rule="nonzero"/><path fill="#f9beaa" d="M 18.65625 22.957031 C 18.210938 22.964844 17.898438 23.199219 17.75 23.335938 C 17.710938 23.371094 17.710938 23.433594 17.75 23.46875 C 17.785156 23.503906 17.839844 23.503906 17.871094 23.46875 C 18 23.351562 18.273438 23.144531 18.660156 23.140625 C 19.117188 23.132812 19.429688 23.414062 19.554688 23.546875 C 19.585938 23.582031 19.636719 23.585938 19.675781 23.554688 C 19.71875 23.519531 19.722656 23.457031 19.683594 23.417969 C 19.539062 23.257812 19.183594 22.945312 18.65625 22.957031 " fill-opacity="1" fill-rule="nonzero"/><path fill="#542020" d="M 9.953125 7.625 C 9.519531 8.214844 6.589844 14.9375 6.542969 17.777344 C 6.535156 18.25 5.496094 17.914062 7.355469 22.929688 C 8.3125 25.515625 9.179688 26.960938 9.953125 28.191406 C 12.027344 31.492188 22.648438 36.328125 28.359375 24.90625 C 29.867188 21.886719 30.824219 16.566406 29.121094 11.621094 C 27.929688 8.15625 26.480469 7.113281 23.8125 5.460938 C 18.957031 2.457031 13.652344 2.597656 9.953125 7.625 " fill-opacity="1" fill-rule="nonzero"/><path fill="#f9beaa" d="M 19.316406 22.855469 C 19.285156 22.882812 19.234375 22.878906 19.203125 22.847656 C 19.085938 22.722656 18.785156 22.460938 18.355469 22.472656 C 17.992188 22.484375 17.734375 22.679688 17.617188 22.792969 C 17.582031 22.824219 17.535156 22.824219 17.5 22.796875 C 17.464844 22.761719 17.460938 22.703125 17.496094 22.667969 C 17.636719 22.535156 17.929688 22.3125 18.351562 22.300781 C 18.847656 22.285156 19.1875 22.574219 19.328125 22.726562 C 19.363281 22.761719 19.359375 22.820312 19.320312 22.851562 L 19.316406 22.855469 " fill-opacity="1" fill-rule="nonzero"/><g clip-path="url(#cf6d298928)"><path fill="#365ace" d="M 10.769531 30.496094 C 12.890625 31.824219 15.378906 32.605469 18.050781 32.636719 C 20.824219 32.671875 23.421875 31.890625 25.625 30.519531 C 23.441406 29.988281 20.867188 29.601562 17.980469 29.617188 C 15.191406 29.632812 12.753906 30.019531 10.769531 30.496094 " fill-opacity="1" fill-rule="nonzero"/></g><path fill="#13131c" d="M 21.351562 26.957031 C 21.351562 26.929688 21.347656 26.902344 21.339844 26.878906 L 21.339844 27.035156 C 21.347656 27.007812 21.351562 26.984375 21.351562 26.957031 " fill-opacity="1" fill-rule="nonzero"/><path fill="#f49b6e" d="M 15.0625 29.445312 L 15.0625 30.167969 C 15.441406 30.707031 16.648438 31.101562 18.074219 31.105469 C 19.730469 31.105469 21.085938 30.578125 21.207031 29.910156 L 21.207031 29.71875 L 21.210938 25.457031 L 15.066406 25.453125 L 15.0625 29.445312 " fill-opacity="1" fill-rule="nonzero"/><path fill="#f9beaa" d="M 18.367188 22.066406 C 17.941406 22.078125 17.644531 22.308594 17.503906 22.441406 C 17.46875 22.476562 17.46875 22.535156 17.507812 22.570312 C 17.539062 22.601562 17.589844 22.597656 17.625 22.566406 C 17.742188 22.453125 18.003906 22.253906 18.371094 22.246094 C 18.804688 22.234375 19.109375 22.496094 19.226562 22.621094 C 19.257812 22.65625 19.308594 22.65625 19.34375 22.628906 C 19.382812 22.597656 19.386719 22.535156 19.351562 22.5 C 19.210938 22.347656 18.871094 22.054688 18.367188 22.066406 " fill-opacity="1" fill-rule="nonzero"/><path fill="#ffb288" d="M 9.1875 15.867188 C 8.71875 15.996094 8.488281 16.511719 8.3125 16.902344 C 8.199219 17.164062 7.867188 17.945312 8.167969 18.867188 C 8.246094 19.113281 8.472656 19.675781 9.039062 20.089844 C 9.246094 20.242188 9.703125 20.578125 10.347656 20.535156 C 10.40625 20.53125 11.207031 20.464844 11.621094 19.871094 C 12.277344 18.921875 11.46875 17.332031 10.640625 16.535156 C 10.371094 16.273438 9.78125 15.707031 9.1875 15.867188 " fill-opacity="1" fill-rule="nonzero"/><path fill="#f58c6c" d="M 9.40625 16.535156 C 8.980469 16.660156 8.96875 17.753906 8.96875 17.867188 C 8.964844 18.121094 8.96875 18.570312 9.257812 19.015625 C 9.375 19.203125 9.625 19.585938 10.09375 19.683594 C 10.476562 19.765625 10.996094 19.65625 11.183594 19.316406 C 11.390625 18.9375 11.089844 18.449219 10.714844 17.832031 C 10.433594 17.375 9.839844 16.40625 9.40625 16.535156 " fill-opacity="1" fill-rule="nonzero"/><path fill="#ffb288" d="M 26.59375 15.867188 C 27.066406 15.996094 27.292969 16.511719 27.46875 16.902344 C 27.582031 17.164062 27.917969 17.945312 27.617188 18.867188 C 27.535156 19.113281 27.308594 19.675781 26.742188 20.089844 C 26.535156 20.242188 26.078125 20.578125 25.433594 20.535156 C 25.378906 20.53125 24.574219 20.464844 24.160156 19.871094 C 23.503906 18.921875 24.3125 17.332031 25.140625 16.535156 C 25.410156 16.273438 26 15.707031 26.59375 15.867188 " fill-opacity="1" fill-rule="nonzero"/><path fill="#f58c6c" d="M 26.375 16.535156 C 26.800781 16.660156 26.8125 17.753906 26.8125 17.867188 C 26.816406 18.121094 26.8125 18.570312 26.523438 19.015625 C 26.40625 19.203125 26.15625 19.585938 25.6875 19.683594 C 25.308594 19.765625 24.785156 19.65625 24.597656 19.316406 C 24.390625 18.9375 24.691406 18.449219 25.066406 17.832031 C 25.351562 17.375 25.941406 16.40625 26.375 16.535156 " fill-opacity="1" fill-rule="nonzero"/><path fill="#f49b6e" d="M 24.320312 5.886719 C 23.050781 4.644531 21.4375 4.515625 19.691406 4.371094 C 18.664062 4.285156 17.320312 4.175781 15.675781 4.722656 C 15 4.945312 13.25 5.550781 11.828125 7.296875 C 11.488281 7.714844 10.640625 8.84375 10.253906 10.5 C 10.128906 11.03125 10.109375 11.871094 10.074219 13.523438 C 10.039062 15.398438 10.019531 16.335938 10.070312 17.257812 C 10.179688 19.148438 10.234375 20.09375 10.589844 21.171875 C 10.84375 21.929688 11.582031 24.050781 13.644531 25.445312 C 14.707031 26.160156 15.699219 26.402344 16.175781 26.515625 C 16.746094 26.648438 18.136719 26.957031 19.84375 26.519531 C 21.84375 26.003906 23.050781 24.78125 23.515625 24.300781 C 24.925781 22.828125 25.410156 21.25 25.527344 20.832031 C 25.769531 19.980469 25.777344 19.050781 25.792969 17.1875 C 25.8125 15.175781 26.304688 15.039062 26.324219 13.453125 C 26.359375 10.472656 26.175781 10.246094 25.800781 8.734375 C 25.652344 8.125 25.34375 6.890625 24.320312 5.886719 " fill-opacity="1" fill-rule="nonzero"/><path fill="#ffb288" d="M 24.320312 5.828125 C 23.050781 4.632812 21.4375 4.507812 19.691406 4.367188 C 18.664062 4.289062 17.320312 4.179688 15.675781 4.707031 C 15 4.921875 13.25 5.503906 11.828125 7.183594 C 11.488281 7.585938 10.640625 8.671875 10.253906 10.265625 C 10.128906 10.777344 10.109375 11.585938 10.074219 13.175781 C 10.039062 14.980469 10.019531 15.878906 10.070312 16.769531 C 10.179688 18.589844 10.234375 19.5 10.59375 20.535156 C 10.84375 21.265625 11.582031 23.308594 13.644531 24.648438 C 14.707031 25.335938 15.699219 25.570312 16.175781 25.679688 C 16.746094 25.804688 18.140625 26.101562 19.847656 25.679688 C 21.847656 25.1875 23.050781 24.011719 23.515625 23.546875 C 24.929688 22.132812 25.410156 20.613281 25.527344 20.210938 C 25.769531 19.390625 25.777344 18.492188 25.792969 16.699219 C 25.8125 14.769531 26.308594 14.636719 26.324219 13.105469 C 26.363281 10.242188 26.175781 10.019531 25.800781 8.570312 C 25.652344 7.980469 25.34375 6.792969 24.320312 5.828125 " fill-opacity="1" fill-rule="nonzero"/><path fill="#f58c6c" d="M 19.414062 18.324219 C 19.414062 18.757812 18.84375 19.105469 18.136719 19.105469 C 17.429688 19.105469 16.859375 18.757812 16.859375 18.324219 C 16.859375 17.890625 17.429688 17.539062 18.136719 17.539062 C 18.84375 17.539062 19.414062 17.890625 19.414062 18.324219 " fill-opacity="1" fill-rule="nonzero"/><path fill="#ff9292" d="M 13.628906 18.324219 C 13.628906 18.578125 13.09375 18.785156 12.429688 18.785156 C 11.765625 18.785156 11.230469 18.578125 11.230469 18.324219 C 11.230469 18.066406 11.765625 17.859375 12.429688 17.859375 C 13.09375 17.859375 13.628906 18.066406 13.628906 18.324219 " fill-opacity="1" fill-rule="nonzero"/><path fill="#ff9292" d="M 22.644531 18.324219 C 22.644531 18.578125 23.183594 18.785156 23.84375 18.785156 C 24.507812 18.785156 25.046875 18.578125 25.046875 18.324219 C 25.046875 18.066406 24.507812 17.859375 23.84375 17.859375 C 23.183594 17.859375 22.644531 18.066406 22.644531 18.324219 " fill-opacity="1" fill-rule="nonzero"/><path fill="#541713" d="M 14.445312 15.382812 C 14.027344 15.476562 13.828125 16.0625 14.007812 16.691406 C 14.1875 17.320312 14.671875 17.753906 15.09375 17.664062 C 15.511719 17.570312 15.707031 16.984375 15.53125 16.355469 C 15.351562 15.726562 14.867188 15.292969 14.445312 15.382812 " fill-opacity="1" fill-rule="nonzero"/><path fill="#541713" d="M 21.828125 15.382812 C 22.246094 15.476562 22.445312 16.0625 22.265625 16.691406 C 22.085938 17.320312 21.601562 17.753906 21.183594 17.664062 C 20.761719 17.570312 20.566406 16.984375 20.742188 16.355469 C 20.921875 15.726562 21.40625 15.292969 21.828125 15.382812 " fill-opacity="1" fill-rule="nonzero"/><path fill="#8e3d34" d="M 15.667969 13.050781 C 15.5625 13.046875 15.453125 13.046875 15.335938 13.058594 L 15.167969 13.074219 C 15.113281 13.082031 15.070312 13.089844 15.019531 13.097656 L 14.878906 13.125 L 14.824219 13.132812 L 14.785156 13.144531 L 14.707031 13.164062 C 14.601562 13.1875 14.5 13.222656 14.398438 13.257812 C 14.296875 13.292969 14.203125 13.335938 14.105469 13.378906 C 14.011719 13.421875 13.921875 13.472656 13.832031 13.519531 C 13.660156 13.621094 13.5 13.734375 13.359375 13.855469 C 13.21875 13.972656 13.09375 14.09375 12.992188 14.214844 C 12.78125 14.457031 12.648438 14.6875 12.570312 14.855469 C 12.527344 14.9375 12.503906 15.007812 12.488281 15.054688 C 12.472656 15.101562 12.464844 15.125 12.464844 15.125 C 12.464844 15.125 12.488281 15.113281 12.53125 15.09375 C 12.574219 15.070312 12.640625 15.039062 12.714844 14.996094 C 12.871094 14.917969 13.089844 14.808594 13.347656 14.695312 C 13.472656 14.636719 13.609375 14.578125 13.753906 14.523438 C 13.898438 14.464844 14.050781 14.410156 14.203125 14.359375 C 14.363281 14.3125 14.523438 14.261719 14.6875 14.222656 C 14.769531 14.199219 14.851562 14.1875 14.933594 14.167969 L 14.996094 14.152344 L 15.023438 14.148438 L 15.015625 14.148438 C 15.023438 14.148438 15 14.152344 15.03125 14.144531 L 15.027344 14.148438 L 15.023438 14.148438 L 15.027344 14.148438 L 15.046875 14.144531 L 15.191406 14.121094 C 15.234375 14.113281 15.289062 14.101562 15.328125 14.097656 L 15.445312 14.085938 C 15.523438 14.074219 15.605469 14.066406 15.691406 14.058594 C 15.859375 14.046875 15.773438 13.046875 15.667969 13.050781 " fill-opacity="1" fill-rule="nonzero"/><path fill="#8e3d34" d="M 20.609375 13.050781 C 20.710938 13.046875 20.820312 13.046875 20.9375 13.058594 L 21.105469 13.074219 C 21.160156 13.082031 21.203125 13.089844 21.253906 13.097656 L 21.394531 13.125 L 21.449219 13.132812 L 21.488281 13.144531 L 21.566406 13.164062 C 21.671875 13.1875 21.773438 13.222656 21.875 13.257812 C 21.976562 13.292969 22.074219 13.335938 22.167969 13.378906 C 22.261719 13.421875 22.351562 13.472656 22.441406 13.519531 C 22.613281 13.621094 22.773438 13.734375 22.914062 13.855469 C 23.054688 13.972656 23.179688 14.09375 23.28125 14.214844 C 23.492188 14.457031 23.625 14.6875 23.703125 14.855469 C 23.746094 14.9375 23.769531 15.007812 23.785156 15.054688 C 23.800781 15.101562 23.8125 15.125 23.8125 15.125 C 23.8125 15.125 23.789062 15.113281 23.742188 15.09375 C 23.699219 15.070312 23.636719 15.039062 23.558594 14.996094 C 23.402344 14.917969 23.183594 14.808594 22.929688 14.695312 C 22.800781 14.636719 22.664062 14.578125 22.519531 14.523438 C 22.375 14.464844 22.222656 14.410156 22.070312 14.359375 C 21.910156 14.3125 21.753906 14.261719 21.585938 14.222656 C 21.507812 14.199219 21.421875 14.1875 21.339844 14.167969 L 21.277344 14.152344 L 21.25 14.148438 L 21.257812 14.148438 C 21.25 14.148438 21.277344 14.152344 21.242188 14.144531 L 21.246094 14.148438 L 21.25 14.148438 L 21.246094 14.148438 L 21.226562 14.144531 L 21.085938 14.121094 C 21.039062 14.113281 20.984375 14.101562 20.945312 14.097656 L 20.828125 14.085938 C 20.75 14.074219 20.667969 14.066406 20.582031 14.058594 C 20.414062 14.046875 20.5 13.046875 20.609375 13.050781 " fill-opacity="1" fill-rule="nonzero"/><path fill="#5b0707" d="M 18.347656 23.929688 C 20.652344 23.855469 21.539062 20.203125 21.539062 20.203125 L 14.871094 20.105469 C 14.871094 20.105469 15.886719 24.007812 18.347656 23.929688 " fill-opacity="1" fill-rule="nonzero"/><path fill="#ffffff" d="M 18.203125 21.242188 C 20.292969 21.242188 21.539062 20.203125 21.539062 20.203125 L 14.871094 20.105469 C 14.871094 20.105469 16 21.242188 18.203125 21.242188 " fill-opacity="1" fill-rule="nonzero"/><path fill="#a02320" d="M 16.417969 23.042969 C 16.921875 23.574219 17.5625 23.957031 18.347656 23.929688 C 19.0625 23.90625 19.640625 23.539062 20.097656 23.042969 C 19.671875 22.738281 19.085938 22.457031 18.347656 22.4375 C 17.503906 22.417969 16.847656 22.738281 16.417969 23.042969 " fill-opacity="1" fill-rule="nonzero"/><path fill="#13131c" d="M 21.71875 28.191406 C 21.722656 28.164062 21.726562 28.136719 21.726562 28.109375 C 21.726562 28.082031 21.726562 28.054688 21.71875 28.027344 L 21.71875 28.191406 " fill-opacity="1" fill-rule="nonzero"/><g clip-path="url(#15ab0352f0)"><path fill="#8e3d34" d="M 29.582031 24.855469 C 30.835938 22.625 31.273438 20.007812 30.878906 17.46875 C 30.832031 17.160156 30.785156 16.84375 30.734375 16.523438 C 28.558594 2.050781 19.296875 2.414062 17.253906 3.390625 C 16.996094 3.511719 15.742188 8.027344 17.632812 8.042969 C 25.550781 8.105469 26.335938 17.566406 25.046875 25.53125 C 24.648438 27.972656 23.976562 30.039062 23.496094 31.316406 C 26.027344 29.722656 28.105469 27.484375 29.582031 24.855469 " fill-opacity="1" fill-rule="nonzero"/></g><path fill="#a0493d" d="M 29.816406 21.238281 C 29.75 20.207031 29.503906 17.394531 28.175781 14.101562 C 27.253906 11.820312 26.429688 9.765625 24.449219 8.257812 C 21.910156 6.324219 18.863281 6.339844 18.859375 6.359375 C 18.855469 6.375 20.628906 6.457031 22.4375 7.574219 C 22.863281 7.839844 24.667969 9.011719 26.164062 12.203125 C 27.71875 15.523438 27.78125 18.546875 27.804688 20.78125 C 27.828125 23.476562 27.496094 26.09375 27.046875 28.355469 C 28.121094 27.1875 29.046875 25.878906 29.796875 24.460938 C 29.894531 23.101562 29.863281 21.984375 29.816406 21.238281 " fill-opacity="1" fill-rule="nonzero"/><g clip-path="url(#8a4d30e522)"><path fill="#8e3d34" d="M 7.214844 25.523438 C 5.691406 23.054688 5.121094 20.101562 5.5625 17.222656 C 5.597656 16.992188 5.632812 16.761719 5.667969 16.523438 C 7.84375 2.050781 17.109375 2.414062 19.148438 3.390625 C 19.40625 3.511719 20.660156 8.027344 18.769531 8.042969 C 10.851562 8.105469 10.066406 17.566406 11.359375 25.53125 C 11.753906 27.972656 12.425781 30.039062 12.910156 31.316406 C 10.59375 29.859375 8.65625 27.863281 7.214844 25.523438 " fill-opacity="1" fill-rule="nonzero"/></g><path fill="#a0493d" d="M 6.589844 21.238281 C 6.652344 20.207031 6.902344 17.394531 8.226562 14.101562 C 9.148438 11.820312 9.976562 9.765625 11.957031 8.257812 C 14.492188 6.324219 17.542969 6.339844 17.546875 6.359375 C 17.550781 6.375 15.773438 6.457031 13.96875 7.574219 C 13.542969 7.839844 11.738281 9.011719 10.242188 12.203125 C 8.683594 15.523438 8.625 18.546875 8.601562 20.78125 C 8.574219 23.476562 8.90625 26.09375 9.359375 28.355469 C 8.28125 27.1875 7.359375 25.878906 6.605469 24.460938 C 6.507812 23.101562 6.542969 21.984375 6.589844 21.238281 " fill-opacity="1" fill-rule="nonzero"/></svg>