<svg xmlns="http://www.w3.org/2000/svg" xmlns:xlink="http://www.w3.org/1999/xlink" width="48" zoomAndPan="magnify" viewBox="0 0 36 36.000001" height="48" preserveAspectRatio="xMidYMid meet" version="1.0"><defs><clipPath id="6c862091fd"><path d="M 0.488281 0 L 35.511719 0 L 35.511719 35.027344 L 0.488281 35.027344 Z M 0.488281 0 " clip-rule="nonzero"/></clipPath><clipPath id="615b58bcbd"><path d="M 3.996094 5.410156 L 31.710938 5.410156 L 31.710938 33.746094 L 3.996094 33.746094 Z M 3.996094 5.410156 " clip-rule="nonzero"/></clipPath><clipPath id="4b86ccb16b"><path d="M 14.792969 27.671875 L 21.183594 27.671875 L 21.183594 33.746094 L 14.792969 33.746094 Z M 14.792969 27.671875 " clip-rule="nonzero"/></clipPath><clipPath id="957ec0e8ce"><path d="M 6 1.636719 L 29 1.636719 L 29 22 L 6 22 Z M 6 1.636719 " clip-rule="nonzero"/></clipPath><clipPath id="172d8c196b"><path d="M 21 1.636719 L 24 1.636719 L 24 7 L 21 7 Z M 21 1.636719 " clip-rule="nonzero"/></clipPath><clipPath id="18d3b71cc7"><path d="M 6 1.636719 L 29 1.636719 L 29 22 L 6 22 Z M 6 1.636719 " clip-rule="nonzero"/></clipPath></defs><g clip-path="url(#6c862091fd)"><path fill="#99c9ff" d="M 18 0 C 8.328125 0 0.488281 7.839844 0.488281 17.511719 C 0.488281 27.1875 8.328125 35.027344 18 35.027344 C 27.671875 35.027344 35.511719 27.1875 35.511719 17.511719 C 35.511719 7.839844 27.671875 0 18 0 " fill-opacity="1" fill-rule="nonzero"/></g><g clip-path="url(#615b58bcbd)"><path fill="#a5dce1" d="M 18.015625 5.429688 C 10.363281 5.339844 4.085938 11.601562 3.996094 19.421875 C 3.90625 27.242188 10.039062 33.65625 17.691406 33.746094 C 25.34375 33.839844 31.617188 27.574219 31.707031 19.753906 C 31.796875 11.933594 25.667969 5.523438 18.015625 5.429688 " fill-opacity="1" fill-rule="nonzero"/></g><g clip-path="url(#4b86ccb16b)"><path fill="#f58c6c" d="M 14.816406 32.882812 L 14.8125 33.40625 C 15.738281 33.617188 16.703125 33.734375 17.691406 33.746094 C 18.859375 33.761719 19.996094 33.625 21.082031 33.363281 L 21.082031 33.304688 L 21.144531 27.789062 L 14.878906 27.714844 L 14.816406 32.882812 " fill-opacity="1" fill-rule="nonzero"/></g><path fill="#13131c" d="M 21.269531 29.324219 C 21.269531 29.296875 21.265625 29.269531 21.261719 29.242188 L 21.261719 29.402344 C 21.265625 29.378906 21.269531 29.351562 21.269531 29.324219 " fill-opacity="1" fill-rule="nonzero"/><path fill="#f9beaa" d="M 18.277344 24.289062 C 17.847656 24.292969 17.539062 24.523438 17.394531 24.65625 C 17.359375 24.695312 17.359375 24.753906 17.398438 24.789062 C 17.429688 24.820312 17.480469 24.820312 17.515625 24.789062 C 17.640625 24.671875 17.90625 24.472656 18.28125 24.46875 C 18.726562 24.460938 19.035156 24.734375 19.152344 24.863281 C 19.183594 24.898438 19.234375 24.902344 19.269531 24.871094 C 19.3125 24.839844 19.316406 24.777344 19.28125 24.738281 C 19.136719 24.582031 18.792969 24.277344 18.277344 24.289062 " fill-opacity="1" fill-rule="nonzero"/><path fill="#ffb288" d="M 8.769531 18.070312 C 8.191406 18.21875 7.90625 18.851562 7.6875 19.332031 C 7.542969 19.648438 7.125 20.605469 7.480469 21.742188 C 7.578125 22.046875 7.84375 22.738281 8.53125 23.257812 C 8.785156 23.445312 9.339844 23.867188 10.128906 23.820312 C 10.199219 23.816406 11.183594 23.746094 11.699219 23.019531 C 12.515625 21.867188 11.542969 19.898438 10.542969 18.910156 C 10.210938 18.585938 9.5 17.878906 8.769531 18.070312 " fill-opacity="1" fill-rule="nonzero"/><g clip-path="url(#957ec0e8ce)"><path fill="#8e3d34" d="M 27.855469 9.601562 C 27.621094 9.101562 26.433594 7.507812 26.535156 7.40625 C 26.617188 7.324219 26.871094 7.464844 27.023438 7.546875 C 27.601562 7.863281 27.816406 8.269531 27.863281 8.242188 C 27.96875 8.175781 27.183594 5.996094 26.195312 5.988281 C 25.941406 5.988281 25.671875 6.132812 25.527344 5.980469 C 25.390625 5.839844 25.527344 5.570312 25.535156 5.300781 C 25.605469 1.851562 21.660156 1.777344 21.46875 1.886719 C 21.449219 1.898438 21.4375 1.910156 21.429688 1.925781 C 21.363281 2.105469 22.320312 2.378906 22.484375 3.167969 C 22.558594 3.515625 22.472656 3.933594 22.296875 3.984375 C 22.265625 3.996094 22.234375 3.992188 22.199219 3.976562 C 22.011719 3.898438 21.792969 3.507812 21.550781 3.203125 C 20.636719 2.074219 19.066406 1.898438 18.132812 1.796875 C 16.730469 1.640625 15.652344 1.964844 15.144531 2.125 C 14.625 2.289062 12.652344 2.929688 11.105469 4.714844 C 10.566406 5.339844 10.046875 6.140625 9.078125 6.695312 C 8.675781 6.925781 8.222656 7.1875 7.648438 7.132812 C 7.324219 7.105469 7.011719 6.980469 6.871094 6.996094 C 6.835938 7 6.816406 7.011719 6.804688 7.03125 C 6.769531 7.089844 6.832031 7.1875 6.976562 7.363281 C 7.386719 7.875 7.636719 8.183594 8.078125 8.367188 C 8.660156 8.613281 8.914062 8.367188 9.058594 8.5625 C 9.394531 9.023438 7.796875 10.191406 8.042969 11.507812 C 8.148438 12.074219 8.472656 12.007812 8.742188 12.839844 C 8.980469 13.578125 8.765625 13.757812 8.894531 14.886719 C 9.027344 16.039062 9.585938 20.511719 9.824219 20.367188 C 10.078125 20.214844 10.285156 19.605469 10.195312 18.136719 C 10.15625 17.546875 10.164062 17.125 10.167969 16.589844 C 10.175781 16.007812 10.195312 14.722656 10.519531 13.179688 C 10.769531 11.984375 10.894531 11.390625 11.304688 10.683594 C 11.519531 10.3125 12.109375 9.324219 13.332031 8.660156 C 13.640625 8.492188 14.90625 7.800781 16.371094 8.101562 C 17.253906 8.285156 17.273438 8.636719 18.03125 8.710938 C 18.039062 8.714844 18.046875 8.714844 18.054688 8.714844 C 19.222656 8.824219 19.550781 8.179688 20.601562 8.015625 C 25.632812 7.25 26.0625 13.402344 26.113281 15.078125 C 26.132812 15.722656 26.058594 16.886719 25.914062 18.324219 C 25.789062 19.566406 25.429688 21.289062 25.863281 21.113281 C 26.234375 20.960938 26.160156 21.046875 26.234375 20.960938 C 26.660156 20.453125 27.234375 14.574219 27.519531 13.839844 C 28.625 10.988281 27.972656 9.851562 27.855469 9.601562 " fill-opacity="1" fill-rule="nonzero"/></g><path fill="#f58c6c" d="M 9.027344 18.890625 C 8.507812 19.039062 8.476562 20.382812 8.472656 20.523438 C 8.46875 20.835938 8.46875 21.390625 8.816406 21.9375 C 8.960938 22.167969 9.257812 22.640625 9.828125 22.769531 C 10.296875 22.875 10.9375 22.75 11.171875 22.332031 C 11.429688 21.871094 11.066406 21.265625 10.613281 20.503906 C 10.273438 19.9375 9.5625 18.742188 9.027344 18.890625 " fill-opacity="1" fill-rule="nonzero"/><path fill="#ffb288" d="M 25.347656 19.085938 C 24.328125 20.050781 23.308594 21.996094 24.097656 23.167969 C 24.597656 23.90625 25.578125 24 25.648438 24.007812 C 26.4375 24.070312 27.003906 23.664062 27.257812 23.480469 C 27.957031 22.976562 28.242188 22.292969 28.34375 21.992188 C 28.726562 20.863281 28.332031 19.898438 28.195312 19.578125 C 27.988281 19.09375 27.714844 18.453125 27.140625 18.289062 C 26.414062 18.082031 25.6875 18.769531 25.347656 19.085938 " fill-opacity="1" fill-rule="nonzero"/><path fill="#f58c6c" d="M 25.242188 20.679688 C 24.769531 21.429688 24.394531 22.023438 24.640625 22.492188 C 24.867188 22.917969 25.503906 23.058594 25.972656 22.964844 C 26.550781 22.847656 26.859375 22.382812 27.007812 22.15625 C 27.363281 21.617188 27.378906 21.0625 27.378906 20.75 C 27.382812 20.609375 27.382812 19.265625 26.863281 19.105469 C 26.335938 18.941406 25.59375 20.121094 25.242188 20.679688 " fill-opacity="1" fill-rule="nonzero"/><path fill="#f58c6c" d="M 19.820312 6.1875 C 18.773438 6.089844 17.40625 5.960938 15.71875 6.503906 C 15.027344 6.722656 13.238281 7.324219 11.769531 9.09375 C 11.417969 9.519531 10.542969 10.664062 10.128906 12.355469 C 9.996094 12.898438 9.964844 13.753906 9.914062 15.445312 C 9.855469 17.367188 9.828125 18.324219 9.871094 19.269531 C 9.960938 21.207031 10.003906 22.175781 10.359375 23.285156 C 10.609375 24.0625 11.339844 26.242188 13.425781 27.691406 C 14.5 28.4375 15.511719 28.695312 16 28.8125 C 16.578125 28.957031 17.996094 29.289062 19.738281 28.859375 C 21.785156 28.355469 23.03125 27.117188 23.507812 26.628906 C 24.964844 25.140625 25.472656 23.527344 25.597656 23.101562 C 25.851562 22.234375 25.871094 21.28125 25.90625 19.371094 C 25.949219 17.316406 26.453125 17.179688 26.492188 15.554688 C 26.558594 12.507812 26.371094 12.269531 26.007812 10.722656 C 25.859375 10.09375 25.558594 8.828125 24.527344 7.792969 C 23.242188 6.507812 21.601562 6.351562 19.820312 6.1875 " fill-opacity="1" fill-rule="nonzero"/><path fill="#ffb288" d="M 19.820312 6.183594 C 18.773438 6.089844 17.40625 5.964844 15.71875 6.484375 C 15.03125 6.699219 13.238281 7.273438 11.769531 8.980469 C 11.417969 9.386719 10.542969 10.488281 10.128906 12.113281 C 9.996094 12.640625 9.96875 13.464844 9.917969 15.089844 C 9.859375 16.9375 9.832031 17.859375 9.875 18.769531 C 9.964844 20.636719 10.011719 21.566406 10.367188 22.632812 C 10.617188 23.382812 11.347656 25.480469 13.4375 26.875 C 14.511719 27.59375 15.523438 27.84375 16.007812 27.957031 C 16.585938 28.09375 18.003906 28.414062 19.75 28.003906 C 21.796875 27.519531 23.039062 26.328125 23.515625 25.855469 C 24.972656 24.425781 25.480469 22.875 25.605469 22.464844 C 25.859375 21.628906 25.875 20.710938 25.914062 18.875 C 25.953125 16.898438 26.457031 16.765625 26.496094 15.203125 C 26.5625 12.269531 26.375 12.042969 26.007812 10.550781 C 25.859375 9.949219 25.5625 8.726562 24.527344 7.730469 C 23.242188 6.492188 21.601562 6.34375 19.820312 6.183594 " fill-opacity="1" fill-rule="nonzero"/><path fill="#f48f6d" d="M 16.957031 18.871094 C 16.789062 18.96875 16.441406 19.175781 16.417969 19.5 C 16.394531 19.785156 17.070312 20.925781 17.910156 20.9375 C 18.539062 20.945312 19.207031 20.503906 19.398438 19.902344 C 19.539062 19.445312 19.199219 19.007812 19.183594 18.988281 C 18.683594 18.359375 17.585938 18.503906 16.957031 18.871094 " fill-opacity="1" fill-rule="nonzero"/><path fill="#591611" d="M 15.800781 12.445312 C 14.625 12.230469 13.832031 12.085938 13.046875 12.574219 C 12.570312 12.867188 12.316406 13.261719 12.105469 13.589844 C 11.683594 14.246094 11.476562 14.988281 11.585938 15.046875 C 11.699219 15.113281 11.984375 14.339844 12.800781 13.914062 C 13.4375 13.585938 14.074219 13.632812 14.3125 13.65625 C 15.597656 13.773438 16.089844 14.652344 16.511719 14.394531 C 16.894531 14.164062 16.933594 13.179688 16.492188 12.730469 C 16.339844 12.574219 16.152344 12.511719 15.800781 12.445312 " fill-opacity="1" fill-rule="nonzero"/><g clip-path="url(#172d8c196b)"><path fill="#6d3131" d="M 21.46875 1.886719 C 21.449219 1.898438 21.4375 1.910156 21.429688 1.925781 C 21.363281 2.105469 22.320312 2.378906 22.484375 3.167969 C 22.558594 3.515625 22.472656 3.933594 22.296875 3.984375 C 22.265625 3.996094 22.234375 3.992188 22.199219 3.976562 C 22.226562 4.074219 22.242188 4.167969 22.25 4.257812 C 22.3125 5.082031 21.625 5.921875 21.785156 6.027344 C 21.917969 6.117188 22.453125 5.523438 22.773438 5.085938 C 23.210938 4.488281 23.546875 4.027344 23.460938 3.453125 C 23.382812 2.941406 23.007812 2.617188 22.804688 2.445312 C 22.355469 2.058594 21.847656 1.929688 21.46875 1.886719 " fill-opacity="1" fill-rule="nonzero"/></g><path fill="#6d3131" d="M 14.726562 6.054688 C 13.191406 5.996094 11.742188 6.886719 11.347656 7.085938 C 10.175781 7.675781 10.074219 8.183594 9.371094 8.292969 C 8.796875 8.382812 7.980469 8.175781 6.871094 6.996094 C 6.835938 7 6.816406 7.011719 6.804688 7.03125 C 6.769531 7.089844 6.832031 7.1875 6.976562 7.363281 C 7.386719 7.875 7.636719 8.183594 8.078125 8.367188 C 8.660156 8.613281 8.914062 8.367188 9.058594 8.5625 C 9.394531 9.023438 7.796875 10.191406 8.042969 11.507812 C 8.148438 12.074219 8.472656 12.007812 8.742188 12.839844 C 8.980469 13.578125 8.765625 13.757812 8.894531 14.886719 C 9.027344 16.039062 9.585938 20.511719 9.824219 20.367188 C 10.078125 20.214844 10.285156 19.605469 10.195312 18.136719 C 10.15625 17.546875 10.164062 17.125 10.167969 16.589844 C 10.175781 16.007812 10.195312 14.722656 10.519531 13.179688 C 10.769531 11.984375 10.894531 11.390625 11.304688 10.683594 C 11.519531 10.3125 12.109375 9.324219 13.332031 8.660156 C 13.640625 8.492188 14.90625 7.800781 16.371094 8.101562 C 17.253906 8.285156 17.273438 8.636719 18.03125 8.710938 C 17.992188 8.386719 17.890625 8.011719 17.667969 7.664062 C 16.914062 6.488281 15.582031 6.089844 14.726562 6.054688 " fill-opacity="1" fill-rule="nonzero"/><g clip-path="url(#18d3b71cc7)"><path fill="#8e3d34" d="M 25.535156 5.300781 C 25.605469 1.851562 21.660156 1.777344 21.46875 1.886719 C 21.847656 1.929688 22.355469 2.058594 22.804688 2.445312 C 23.007812 2.617188 23.382812 2.941406 23.460938 3.453125 C 23.546875 4.027344 23.210938 4.488281 22.773438 5.085938 C 22.453125 5.523438 21.917969 6.117188 21.785156 6.027344 C 21.625 5.921875 22.3125 5.082031 22.25 4.257812 C 22.242188 4.167969 22.226562 4.074219 22.199219 3.976562 C 22.011719 3.898438 21.792969 3.507812 21.550781 3.203125 C 20.636719 2.074219 19.066406 1.898438 18.132812 1.796875 C 16.730469 1.640625 15.652344 1.964844 15.144531 2.125 C 14.625 2.289062 12.652344 2.929688 11.105469 4.714844 C 10.566406 5.339844 10.046875 6.140625 9.078125 6.695312 C 8.675781 6.925781 8.222656 7.1875 7.648438 7.132812 C 7.324219 7.105469 7.011719 6.980469 6.871094 6.996094 C 7.980469 8.175781 8.796875 8.382812 9.371094 8.292969 C 10.074219 8.183594 10.175781 7.675781 11.347656 7.085938 C 11.742188 6.886719 12.9375 6.335938 14.472656 6.394531 C 15.324219 6.429688 16.914062 6.488281 17.667969 7.664062 C 17.890625 8.011719 17.992188 8.386719 18.03125 8.710938 C 18.039062 8.714844 18.046875 8.714844 18.054688 8.714844 C 19.222656 8.824219 19.550781 8.179688 20.601562 8.015625 C 25.632812 7.25 26.0625 13.402344 26.113281 15.078125 C 26.132812 15.722656 26.058594 16.886719 25.914062 18.324219 C 25.789062 19.566406 25.429688 21.289062 25.863281 21.113281 C 26.234375 20.960938 26.160156 21.046875 26.234375 20.960938 C 26.660156 20.453125 27.234375 14.574219 27.519531 13.839844 C 28.625 10.988281 27.972656 9.851562 27.855469 9.601562 C 27.621094 9.101562 26.433594 7.507812 26.535156 7.40625 C 26.617188 7.324219 26.871094 7.464844 27.023438 7.546875 C 27.601562 7.863281 27.816406 8.269531 27.863281 8.242188 C 27.96875 8.175781 27.183594 5.996094 26.195312 5.988281 C 25.941406 5.988281 25.671875 6.132812 25.527344 5.980469 C 25.390625 5.839844 25.527344 5.570312 25.535156 5.300781 " fill-opacity="1" fill-rule="nonzero"/></g><path fill="#8e3d34" d="M 15.804688 12.128906 C 14.628906 11.914062 13.835938 11.769531 13.050781 12.257812 C 12.574219 12.550781 12.320312 12.945312 12.109375 13.273438 C 11.6875 13.929688 11.480469 14.671875 11.589844 14.730469 C 11.703125 14.796875 11.988281 14.023438 12.804688 13.597656 C 13.441406 13.269531 14.078125 13.316406 14.316406 13.339844 C 15.601562 13.457031 16.09375 14.332031 16.515625 14.078125 C 16.898438 13.847656 16.9375 12.863281 16.496094 12.414062 C 16.34375 12.257812 16.15625 12.195312 15.804688 12.128906 " fill-opacity="1" fill-rule="nonzero"/><path fill="#591611" d="M 20.5625 12.503906 C 20.207031 12.5625 20.019531 12.617188 19.863281 12.773438 C 19.414062 13.210938 19.429688 14.195312 19.804688 14.433594 C 20.222656 14.699219 20.734375 13.832031 22.019531 13.75 C 22.261719 13.734375 22.898438 13.699219 23.527344 14.042969 C 24.335938 14.488281 24.601562 15.265625 24.714844 15.207031 C 24.824219 15.148438 24.636719 14.402344 24.226562 13.734375 C 24.023438 13.402344 23.78125 13.003906 23.3125 12.695312 C 22.539062 12.1875 21.742188 12.316406 20.5625 12.503906 " fill-opacity="1" fill-rule="nonzero"/><path fill="#8e3d34" d="M 20.566406 12.1875 C 20.210938 12.242188 20.023438 12.300781 19.867188 12.457031 C 19.414062 12.894531 19.433594 13.878906 19.808594 14.117188 C 20.226562 14.382812 20.738281 13.515625 22.023438 13.433594 C 22.265625 13.417969 22.902344 13.382812 23.53125 13.726562 C 24.335938 14.171875 24.605469 14.949219 24.71875 14.890625 C 24.828125 14.832031 24.640625 14.085938 24.230469 13.417969 C 24.027344 13.085938 23.785156 12.6875 23.3125 12.378906 C 22.542969 11.871094 21.746094 12 20.566406 12.1875 " fill-opacity="1" fill-rule="nonzero"/><path fill="#a05342" d="M 18.414062 4.246094 C 18.414062 4.242188 18.414062 4.242188 18.414062 4.242188 C 18.410156 4.25 18.410156 4.246094 18.414062 4.246094 " fill-opacity="1" fill-rule="nonzero"/><path fill="#a05342" d="M 17.636719 5.234375 L 17.640625 5.230469 C 17.628906 5.242188 17.636719 5.234375 17.636719 5.234375 " fill-opacity="1" fill-rule="nonzero"/><path fill="#a05342" d="M 17.679688 5.183594 C 17.648438 5.175781 17.617188 5.164062 17.582031 5.152344 C 17.527344 5.132812 17.472656 5.113281 17.417969 5.09375 C 17.472656 5.148438 17.527344 5.203125 17.570312 5.257812 C 17.585938 5.28125 17.601562 5.304688 17.609375 5.320312 C 17.613281 5.324219 17.613281 5.332031 17.609375 5.3125 C 17.609375 5.308594 17.609375 5.292969 17.613281 5.289062 C 17.613281 5.285156 17.613281 5.277344 17.617188 5.269531 C 17.625 5.253906 17.609375 5.277344 17.640625 5.230469 L 17.636719 5.234375 C 17.636719 5.234375 17.628906 5.242188 17.640625 5.230469 L 17.640625 5.226562 C 17.640625 5.226562 17.640625 5.226562 17.640625 5.230469 C 17.648438 5.21875 17.660156 5.210938 17.671875 5.203125 C 17.683594 5.199219 17.6875 5.195312 17.691406 5.195312 C 17.707031 5.191406 17.710938 5.191406 17.714844 5.191406 C 17.714844 5.191406 17.714844 5.191406 17.710938 5.1875 C 17.707031 5.1875 17.691406 5.1875 17.679688 5.183594 " fill-opacity="1" fill-rule="nonzero"/><path fill="#a05342" d="M 18.414062 4.242188 C 18.417969 4.234375 18.417969 4.234375 18.414062 4.242188 " fill-opacity="1" fill-rule="nonzero"/><path fill="#a05342" d="M 18.46875 4.183594 C 18.410156 4.164062 18.339844 4.136719 18.269531 4.109375 C 18.183594 4.078125 18.097656 4.046875 18.007812 4.019531 C 18.039062 4.039062 18.066406 4.058594 18.097656 4.082031 C 18.152344 4.121094 18.203125 4.164062 18.253906 4.210938 C 18.300781 4.253906 18.347656 4.304688 18.378906 4.34375 C 18.382812 4.351562 18.390625 4.363281 18.386719 4.363281 C 18.386719 4.363281 18.386719 4.363281 18.386719 4.355469 C 18.386719 4.351562 18.382812 4.351562 18.382812 4.335938 C 18.382812 4.328125 18.382812 4.324219 18.382812 4.316406 C 18.382812 4.304688 18.386719 4.292969 18.390625 4.28125 C 18.394531 4.273438 18.40625 4.253906 18.414062 4.242188 C 18.414062 4.242188 18.414062 4.242188 18.414062 4.246094 C 18.410156 4.246094 18.410156 4.25 18.414062 4.242188 C 18.417969 4.234375 18.417969 4.234375 18.414062 4.242188 C 18.417969 4.238281 18.417969 4.234375 18.425781 4.230469 C 18.4375 4.214844 18.460938 4.203125 18.472656 4.203125 C 18.476562 4.199219 18.484375 4.199219 18.488281 4.195312 C 18.503906 4.195312 18.5 4.195312 18.507812 4.195312 C 18.511719 4.195312 18.507812 4.195312 18.503906 4.195312 C 18.496094 4.191406 18.484375 4.1875 18.46875 4.183594 " fill-opacity="1" fill-rule="nonzero"/><path fill="#a05342" d="M 18.253906 3.085938 C 17.992188 3.003906 17.664062 2.925781 17.277344 2.921875 C 17.085938 2.921875 16.878906 2.933594 16.664062 2.96875 C 16.449219 3.007812 16.226562 3.0625 16 3.15625 C 15.945312 3.179688 15.886719 3.207031 15.828125 3.246094 C 15.8125 3.253906 15.796875 3.265625 15.777344 3.28125 C 15.765625 3.292969 15.757812 3.300781 15.746094 3.320312 C 15.742188 3.324219 15.734375 3.34375 15.726562 3.359375 C 15.726562 3.363281 15.722656 3.378906 15.722656 3.390625 C 15.726562 3.414062 15.714844 3.398438 15.734375 3.449219 L 15.734375 3.453125 C 15.738281 3.457031 15.75 3.480469 15.761719 3.488281 C 15.792969 3.515625 15.800781 3.511719 15.8125 3.519531 C 15.824219 3.523438 15.828125 3.523438 15.835938 3.527344 C 15.84375 3.527344 15.851562 3.53125 15.859375 3.53125 C 15.882812 3.53125 15.898438 3.53125 15.917969 3.53125 C 16.050781 3.53125 16.164062 3.519531 16.289062 3.515625 C 16.53125 3.511719 16.78125 3.527344 17.03125 3.582031 C 17.277344 3.636719 17.523438 3.730469 17.757812 3.859375 C 17.84375 3.90625 17.925781 3.960938 18.007812 4.019531 C 18.097656 4.046875 18.183594 4.078125 18.269531 4.109375 C 18.339844 4.136719 18.410156 4.164062 18.46875 4.183594 C 18.484375 4.1875 18.496094 4.191406 18.503906 4.195312 C 18.507812 4.195312 18.511719 4.195312 18.507812 4.195312 C 18.5 4.195312 18.503906 4.195312 18.488281 4.195312 C 18.484375 4.199219 18.476562 4.199219 18.472656 4.203125 C 18.460938 4.203125 18.4375 4.214844 18.425781 4.230469 C 18.417969 4.234375 18.417969 4.238281 18.414062 4.242188 C 18.40625 4.253906 18.394531 4.273438 18.390625 4.28125 C 18.386719 4.292969 18.382812 4.304688 18.382812 4.316406 C 18.382812 4.324219 18.382812 4.328125 18.382812 4.335938 C 18.382812 4.351562 18.386719 4.351562 18.386719 4.355469 C 18.386719 4.363281 18.386719 4.363281 18.386719 4.363281 C 18.390625 4.363281 18.382812 4.351562 18.378906 4.34375 C 18.347656 4.304688 18.300781 4.253906 18.253906 4.210938 C 18.203125 4.164062 18.152344 4.121094 18.097656 4.082031 C 18.066406 4.058594 18.039062 4.039062 18.007812 4.019531 C 17.949219 4 17.894531 3.980469 17.835938 3.960938 C 17.6875 3.917969 17.535156 3.882812 17.378906 3.851562 C 17.339844 3.847656 17.300781 3.839844 17.257812 3.835938 L 17.144531 3.820312 C 17.066406 3.808594 16.984375 3.804688 16.90625 3.796875 C 16.589844 3.78125 16.269531 3.796875 15.949219 3.847656 C 15.792969 3.875 15.632812 3.910156 15.476562 3.957031 C 15.398438 3.980469 15.320312 4.003906 15.238281 4.039062 C 15.199219 4.054688 15.160156 4.074219 15.113281 4.097656 C 15.101562 4.105469 15.085938 4.113281 15.074219 4.125 C 15.070312 4.128906 15.054688 4.136719 15.046875 4.144531 C 15.042969 4.148438 15.039062 4.152344 15.03125 4.160156 C 15.023438 4.167969 15.015625 4.179688 15.007812 4.191406 C 15.003906 4.195312 14.984375 4.222656 14.976562 4.269531 C 14.964844 4.308594 15.019531 4.460938 15 4.398438 C 15 4.394531 14.996094 4.394531 15 4.398438 C 14.996094 4.394531 15 4.394531 15 4.398438 C 15.003906 4.40625 15.03125 4.445312 15.0625 4.460938 C 15.109375 4.488281 15.128906 4.488281 15.128906 4.488281 C 15.148438 4.492188 15.164062 4.496094 15.171875 4.496094 C 15.179688 4.496094 15.191406 4.496094 15.199219 4.496094 C 15.253906 4.492188 15.289062 4.488281 15.328125 4.484375 L 15.441406 4.472656 C 15.515625 4.46875 15.589844 4.460938 15.664062 4.460938 C 15.808594 4.457031 15.957031 4.460938 16.101562 4.480469 C 16.386719 4.515625 16.664062 4.601562 16.914062 4.738281 C 17.042969 4.804688 17.160156 4.882812 17.273438 4.972656 C 17.324219 5.011719 17.371094 5.050781 17.417969 5.09375 C 17.472656 5.113281 17.527344 5.132812 17.582031 5.152344 C 17.617188 5.164062 17.648438 5.175781 17.679688 5.183594 C 17.691406 5.1875 17.707031 5.1875 17.710938 5.1875 C 17.714844 5.191406 17.714844 5.191406 17.714844 5.191406 C 17.710938 5.191406 17.707031 5.191406 17.691406 5.195312 C 17.6875 5.195312 17.683594 5.199219 17.671875 5.203125 C 17.660156 5.210938 17.648438 5.21875 17.640625 5.230469 C 17.609375 5.277344 17.625 5.253906 17.617188 5.269531 C 17.613281 5.277344 17.613281 5.285156 17.613281 5.289062 C 17.609375 5.292969 17.609375 5.308594 17.609375 5.3125 C 17.613281 5.332031 17.613281 5.324219 17.609375 5.320312 C 17.601562 5.304688 17.585938 5.28125 17.570312 5.257812 C 17.527344 5.203125 17.472656 5.148438 17.417969 5.09375 C 17.332031 5.066406 17.25 5.035156 17.164062 5.007812 C 16.882812 4.917969 16.59375 4.84375 16.304688 4.808594 C 16.019531 4.773438 15.734375 4.765625 15.460938 4.78125 C 15.1875 4.800781 14.921875 4.839844 14.671875 4.90625 C 14.546875 4.9375 14.425781 4.976562 14.304688 5.019531 C 14.246094 5.042969 14.1875 5.070312 14.128906 5.101562 C 14.113281 5.109375 14.097656 5.121094 14.082031 5.132812 L 14.066406 5.144531 L 14.058594 5.148438 C 14.050781 5.152344 14.046875 5.160156 14.042969 5.164062 C 14.039062 5.167969 14.035156 5.175781 14.03125 5.179688 C 14.023438 5.191406 14.011719 5.21875 14.011719 5.242188 C 14.007812 5.265625 14.046875 5.34375 14.03125 5.308594 C 14.027344 5.304688 14.046875 5.328125 14.0625 5.335938 C 14.078125 5.347656 14.097656 5.355469 14.113281 5.359375 L 14.125 5.359375 C 14.132812 5.359375 14.140625 5.359375 14.144531 5.359375 C 14.15625 5.359375 14.164062 5.359375 14.171875 5.359375 L 14.222656 5.351562 C 14.453125 5.316406 14.667969 5.289062 14.875 5.28125 C 15.085938 5.273438 15.28125 5.28125 15.464844 5.300781 C 15.835938 5.34375 16.148438 5.4375 16.398438 5.542969 C 16.644531 5.648438 16.832031 5.757812 16.953125 5.835938 C 17.074219 5.917969 17.136719 5.964844 17.136719 5.964844 C 17.136719 5.964844 17.078125 5.910156 16.964844 5.820312 C 16.847656 5.730469 16.671875 5.601562 16.425781 5.476562 C 16.179688 5.351562 15.867188 5.230469 15.484375 5.164062 C 15.308594 5.132812 15.117188 5.113281 14.917969 5.109375 C 14.851562 5.117188 14.789062 5.128906 14.726562 5.144531 C 14.605469 5.167969 14.488281 5.199219 14.378906 5.234375 C 14.324219 5.253906 14.273438 5.273438 14.226562 5.292969 C 14.214844 5.300781 14.207031 5.304688 14.199219 5.308594 C 14.195312 5.3125 14.195312 5.3125 14.195312 5.3125 C 14.195312 5.308594 14.199219 5.308594 14.199219 5.304688 C 14.203125 5.304688 14.203125 5.300781 14.207031 5.296875 C 14.210938 5.289062 14.222656 5.265625 14.222656 5.246094 C 14.222656 5.234375 14.207031 5.199219 14.203125 5.1875 C 14.199219 5.179688 14.191406 5.171875 14.183594 5.164062 C 14.171875 5.15625 14.15625 5.148438 14.144531 5.148438 C 14.148438 5.148438 14.152344 5.148438 14.160156 5.148438 L 14.199219 5.144531 C 14.425781 5.121094 14.660156 5.101562 14.875 5.105469 C 14.886719 5.105469 14.902344 5.105469 14.917969 5.109375 C 15.097656 5.078125 15.28125 5.058594 15.472656 5.054688 C 15.992188 5.035156 16.53125 5.125 17.066406 5.3125 C 17.203125 5.359375 17.335938 5.414062 17.480469 5.464844 C 17.515625 5.480469 17.554688 5.492188 17.597656 5.503906 C 17.617188 5.507812 17.640625 5.515625 17.671875 5.519531 C 17.699219 5.523438 17.730469 5.53125 17.800781 5.507812 C 17.808594 5.507812 17.820312 5.503906 17.835938 5.492188 C 17.851562 5.484375 17.863281 5.472656 17.875 5.460938 C 17.890625 5.445312 17.886719 5.449219 17.890625 5.449219 L 17.894531 5.441406 C 17.929688 5.386719 17.914062 5.410156 17.925781 5.386719 C 17.929688 5.378906 17.933594 5.363281 17.933594 5.355469 C 17.9375 5.339844 17.9375 5.316406 17.9375 5.304688 C 17.9375 5.242188 17.921875 5.214844 17.910156 5.183594 C 17.886719 5.128906 17.859375 5.089844 17.835938 5.054688 C 17.726562 4.910156 17.609375 4.800781 17.484375 4.699219 C 17.355469 4.597656 17.21875 4.503906 17.078125 4.425781 C 16.851562 4.300781 16.605469 4.210938 16.351562 4.160156 C 16.234375 4.167969 16.121094 4.179688 16.007812 4.199219 C 15.859375 4.226562 15.714844 4.257812 15.578125 4.300781 C 15.507812 4.324219 15.4375 4.347656 15.375 4.375 C 15.34375 4.386719 15.3125 4.402344 15.289062 4.414062 C 15.285156 4.417969 15.28125 4.417969 15.28125 4.421875 C 15.277344 4.421875 15.28125 4.417969 15.28125 4.417969 C 15.285156 4.414062 15.28125 4.417969 15.289062 4.414062 C 15.292969 4.40625 15.300781 4.398438 15.304688 4.394531 C 15.300781 4.394531 15.320312 4.371094 15.328125 4.328125 C 15.332031 4.308594 15.316406 4.242188 15.304688 4.210938 C 15.296875 4.199219 15.277344 4.171875 15.257812 4.15625 C 15.210938 4.132812 15.195312 4.132812 15.203125 4.132812 C 15.195312 4.132812 15.1875 4.132812 15.191406 4.132812 C 15.191406 4.132812 15.1875 4.132812 15.191406 4.132812 C 15.214844 4.128906 15.257812 4.125 15.292969 4.125 L 15.410156 4.113281 C 15.492188 4.105469 15.574219 4.101562 15.652344 4.097656 C 15.816406 4.09375 15.980469 4.101562 16.144531 4.125 C 16.214844 4.132812 16.28125 4.144531 16.351562 4.160156 C 16.53125 4.144531 16.710938 4.140625 16.886719 4.148438 C 16.960938 4.152344 17.035156 4.160156 17.105469 4.167969 L 17.214844 4.179688 L 17.320312 4.195312 C 17.464844 4.21875 17.605469 4.25 17.746094 4.289062 C 17.886719 4.324219 18.023438 4.371094 18.160156 4.421875 C 18.230469 4.445312 18.296875 4.46875 18.378906 4.496094 C 18.398438 4.5 18.417969 4.507812 18.449219 4.511719 C 18.460938 4.515625 18.480469 4.515625 18.5 4.515625 C 18.515625 4.515625 18.523438 4.519531 18.546875 4.515625 C 18.554688 4.511719 18.566406 4.507812 18.574219 4.507812 C 18.589844 4.5 18.617188 4.488281 18.636719 4.46875 C 18.660156 4.445312 18.65625 4.449219 18.65625 4.449219 C 18.640625 4.472656 18.679688 4.414062 18.683594 4.398438 C 18.691406 4.382812 18.695312 4.367188 18.695312 4.351562 C 18.699219 4.339844 18.695312 4.328125 18.695312 4.316406 C 18.695312 4.292969 18.691406 4.28125 18.6875 4.269531 C 18.683594 4.253906 18.679688 4.246094 18.675781 4.238281 C 18.660156 4.199219 18.648438 4.179688 18.632812 4.15625 C 18.574219 4.082031 18.515625 4.027344 18.457031 3.972656 C 18.398438 3.921875 18.335938 3.871094 18.277344 3.828125 C 18.152344 3.738281 18.023438 3.660156 17.894531 3.59375 C 17.632812 3.460938 17.355469 3.367188 17.082031 3.316406 C 16.808594 3.265625 16.535156 3.253906 16.277344 3.273438 C 16.269531 3.273438 16.257812 3.277344 16.246094 3.277344 C 16.191406 3.296875 16.136719 3.320312 16.082031 3.347656 C 16.035156 3.371094 15.984375 3.394531 15.945312 3.425781 C 15.9375 3.429688 15.929688 3.4375 15.925781 3.441406 C 15.925781 3.441406 15.925781 3.441406 15.925781 3.4375 C 15.925781 3.4375 15.933594 3.429688 15.933594 3.421875 C 15.933594 3.417969 15.9375 3.410156 15.9375 3.398438 C 15.9375 3.382812 15.945312 3.402344 15.929688 3.351562 L 15.929688 3.359375 C 15.929688 3.359375 15.921875 3.339844 15.914062 3.332031 C 15.886719 3.308594 15.886719 3.3125 15.882812 3.308594 C 15.878906 3.308594 15.878906 3.308594 15.878906 3.308594 C 15.878906 3.308594 15.878906 3.308594 15.882812 3.308594 C 15.886719 3.308594 15.898438 3.308594 15.914062 3.308594 C 16.011719 3.300781 16.128906 3.285156 16.246094 3.277344 C 16.398438 3.21875 16.550781 3.175781 16.695312 3.140625 C 16.898438 3.09375 17.09375 3.070312 17.277344 3.0625 C 17.648438 3.046875 17.976562 3.09375 18.234375 3.15625 C 18.496094 3.21875 18.699219 3.292969 18.832031 3.347656 C 18.96875 3.402344 19.039062 3.4375 19.039062 3.4375 C 19.039062 3.4375 18.972656 3.398438 18.839844 3.332031 C 18.710938 3.265625 18.515625 3.167969 18.253906 3.085938 " fill-opacity="1" fill-rule="nonzero"/><path fill="#a05342" d="M 15.652344 4.097656 C 15.574219 4.101562 15.492188 4.105469 15.410156 4.113281 L 15.292969 4.125 C 15.257812 4.125 15.214844 4.128906 15.191406 4.132812 C 15.1875 4.132812 15.191406 4.132812 15.191406 4.132812 C 15.1875 4.132812 15.195312 4.132812 15.203125 4.132812 C 15.195312 4.132812 15.210938 4.132812 15.257812 4.15625 C 15.277344 4.171875 15.296875 4.199219 15.304688 4.210938 C 15.300781 4.191406 15.296875 4.1875 15.308594 4.214844 C 15.308594 4.21875 15.3125 4.21875 15.308594 4.214844 C 15.3125 4.21875 15.308594 4.21875 15.308594 4.214844 C 15.308594 4.210938 15.304688 4.210938 15.304688 4.210938 C 15.316406 4.242188 15.332031 4.308594 15.328125 4.328125 C 15.320312 4.371094 15.300781 4.394531 15.304688 4.394531 C 15.300781 4.398438 15.292969 4.40625 15.289062 4.414062 C 15.28125 4.417969 15.285156 4.414062 15.28125 4.417969 C 15.28125 4.417969 15.277344 4.421875 15.28125 4.421875 C 15.28125 4.417969 15.285156 4.417969 15.289062 4.414062 C 15.3125 4.402344 15.34375 4.386719 15.375 4.375 C 15.4375 4.347656 15.507812 4.324219 15.578125 4.300781 C 15.714844 4.257812 15.859375 4.226562 16.007812 4.199219 C 16.121094 4.179688 16.234375 4.167969 16.351562 4.160156 C 16.28125 4.144531 16.214844 4.132812 16.144531 4.125 C 15.980469 4.101562 15.816406 4.09375 15.652344 4.097656 " fill-opacity="1" fill-rule="nonzero"/><path fill="#a05342" d="M 15.882812 3.308594 C 15.878906 3.308594 15.878906 3.308594 15.878906 3.308594 C 15.878906 3.308594 15.878906 3.308594 15.882812 3.308594 C 15.886719 3.3125 15.886719 3.308594 15.914062 3.332031 C 15.921875 3.339844 15.929688 3.359375 15.929688 3.359375 L 15.929688 3.351562 C 15.945312 3.402344 15.9375 3.382812 15.9375 3.398438 C 15.9375 3.410156 15.933594 3.417969 15.933594 3.421875 C 15.933594 3.429688 15.925781 3.4375 15.925781 3.4375 C 15.925781 3.441406 15.925781 3.441406 15.925781 3.441406 C 15.929688 3.4375 15.9375 3.429688 15.945312 3.425781 C 15.984375 3.394531 16.035156 3.371094 16.082031 3.347656 C 16.136719 3.320312 16.191406 3.296875 16.246094 3.277344 C 16.128906 3.285156 16.011719 3.300781 15.914062 3.308594 C 15.898438 3.308594 15.886719 3.308594 15.882812 3.308594 " fill-opacity="1" fill-rule="nonzero"/><path fill="#a05342" d="M 14.203125 5.1875 C 14.207031 5.191406 14.207031 5.191406 14.203125 5.1875 " fill-opacity="1" fill-rule="nonzero"/><path fill="#a05342" d="M 14.203125 5.1875 C 14.199219 5.175781 14.199219 5.175781 14.203125 5.1875 " fill-opacity="1" fill-rule="nonzero"/><path fill="#a05342" d="M 15.308594 4.214844 C 15.296875 4.1875 15.300781 4.191406 15.304688 4.210938 C 15.304688 4.210938 15.308594 4.210938 15.308594 4.214844 " fill-opacity="1" fill-rule="nonzero"/><path fill="#a05342" d="M 14.199219 5.144531 L 14.160156 5.148438 C 14.152344 5.148438 14.148438 5.148438 14.144531 5.148438 C 14.15625 5.148438 14.171875 5.15625 14.183594 5.164062 C 14.191406 5.171875 14.199219 5.179688 14.203125 5.1875 C 14.199219 5.175781 14.199219 5.175781 14.203125 5.1875 C 14.207031 5.191406 14.207031 5.191406 14.203125 5.1875 C 14.207031 5.191406 14.207031 5.191406 14.203125 5.1875 C 14.207031 5.199219 14.222656 5.234375 14.222656 5.246094 C 14.222656 5.265625 14.210938 5.289062 14.207031 5.296875 C 14.203125 5.300781 14.203125 5.304688 14.199219 5.304688 C 14.199219 5.308594 14.195312 5.308594 14.195312 5.3125 C 14.195312 5.3125 14.195312 5.3125 14.199219 5.308594 C 14.207031 5.304688 14.214844 5.300781 14.226562 5.292969 C 14.273438 5.273438 14.324219 5.253906 14.378906 5.234375 C 14.488281 5.199219 14.605469 5.167969 14.726562 5.144531 C 14.789062 5.128906 14.851562 5.117188 14.917969 5.109375 C 14.902344 5.105469 14.886719 5.105469 14.875 5.105469 C 14.660156 5.101562 14.425781 5.121094 14.199219 5.144531 " fill-opacity="1" fill-rule="nonzero"/><path fill="#541713" d="M 14.390625 15.199219 C 13.984375 15.285156 13.753906 15.964844 13.871094 16.714844 C 13.992188 17.464844 14.414062 18 14.820312 17.914062 C 15.226562 17.828125 15.460938 17.148438 15.339844 16.398438 C 15.222656 15.648438 14.796875 15.113281 14.390625 15.199219 " fill-opacity="1" fill-rule="nonzero"/><path fill="#541713" d="M 20.640625 16.460938 C 20.507812 17.207031 20.722656 17.890625 21.128906 17.988281 C 21.53125 18.085938 21.96875 17.558594 22.105469 16.8125 C 22.238281 16.066406 22.023438 15.382812 21.617188 15.285156 C 21.214844 15.1875 20.777344 15.714844 20.640625 16.460938 " fill-opacity="1" fill-rule="nonzero"/><path fill="#ffffff" d="M 24.210938 16.671875 C 24.199219 17.980469 23.144531 19.035156 21.863281 19.019531 C 20.582031 19.003906 19.550781 17.925781 19.566406 16.617188 C 19.578125 15.308594 20.632812 14.253906 21.917969 14.269531 C 23.199219 14.285156 24.226562 15.363281 24.210938 16.671875 Z M 16.738281 16.582031 C 16.722656 17.890625 15.667969 18.945312 14.386719 18.929688 C 13.105469 18.914062 12.074219 17.835938 12.089844 16.527344 C 12.105469 15.21875 13.160156 14.164062 14.441406 14.179688 C 15.722656 14.195312 16.753906 15.273438 16.738281 16.582031 Z M 21.925781 13.582031 C 20.328125 13.5625 19.003906 14.828125 18.898438 16.4375 L 17.410156 16.425781 C 17.34375 14.8125 16.046875 13.511719 14.449219 13.492188 C 12.796875 13.472656 11.433594 14.828125 11.414062 16.519531 C 11.398438 18.207031 12.726562 19.597656 14.378906 19.617188 C 15.859375 19.636719 17.101562 18.550781 17.363281 17.113281 L 18.929688 17.125 C 19.152344 18.570312 20.371094 19.691406 21.855469 19.707031 C 23.507812 19.726562 24.867188 18.371094 24.886719 16.679688 C 24.90625 14.992188 23.578125 13.601562 21.925781 13.582031 " fill-opacity="1" fill-rule="nonzero"/><path fill="#ffffff" d="M 17.875 23.914062 C 19.574219 23.9375 20.960938 23.042969 20.972656 21.917969 L 14.824219 21.84375 C 14.8125 22.96875 16.175781 23.894531 17.875 23.914062 " fill-opacity="1" fill-rule="nonzero"/></svg>